<svg width="23" height="23" viewBox="0 0 23 23" fill="none" xmlns="http://www.w3.org/2000/svg">
<path d="M10.6188 2.97813C11.2513 2.4373 12.2871 2.4373 12.9288 2.97813L14.3771 4.2249C14.6521 4.46323 15.1654 4.65571 15.5321 4.65571H17.0905C18.0621 4.65571 18.8596 5.45314 18.8596 6.42481V7.98321C18.8596 8.34071 19.0521 8.86322 19.2904 9.13822L20.5371 10.5865C21.078 11.219 21.078 12.2549 20.5371 12.8965L19.2904 14.3448C19.0521 14.6198 18.8596 15.1332 18.8596 15.4998V17.0582C18.8596 18.0299 18.0621 18.8273 17.0905 18.8273H15.5321C15.1746 18.8273 14.6521 19.0198 14.3771 19.2581L12.9288 20.5048C12.2963 21.0456 11.2605 21.0456 10.6188 20.5048L9.17047 19.2581C8.89547 19.0198 8.38212 18.8273 8.01546 18.8273H6.42961C5.45795 18.8273 4.66045 18.0299 4.66045 17.0582V15.4907C4.66045 15.1332 4.46796 14.6198 4.23879 14.3448L3.00129 12.8874C2.46962 12.2549 2.46962 11.2282 3.00129 10.5957L4.23879 9.13822C4.46796 8.86322 4.66045 8.34989 4.66045 7.99239V6.42481C4.66045 5.45314 5.45795 4.65571 6.42961 4.65571H8.01546C8.37296 4.65571 8.89547 4.46323 9.17047 4.2249L10.6188 2.97813Z" stroke="#1A171F" stroke-width="1.5" stroke-linecap="round" stroke-linejoin="round"/>
<path d="M9.83061 14.3175L11.1598 15.3442C11.3339 15.5183 11.7189 15.6008 11.9756 15.6008H13.5981C14.1114 15.6008 14.6706 15.2159 14.7989 14.7025L15.8256 11.5675C16.0364 10.9717 15.6514 10.4492 15.0098 10.4492H13.2956C13.0389 10.4492 12.8281 10.2384 12.8648 9.93591L13.0756 8.56091C13.1581 8.17591 12.9014 7.74505 12.5164 7.61671C12.1773 7.48838 11.7464 7.66251 11.5723 7.91917L9.81226 10.5317" stroke="#1A171F" stroke-width="1.5" stroke-miterlimit="10"/>
<path d="M7.63965 14.3174V10.1191C7.63965 9.51407 7.89632 9.30322 8.50132 9.30322H8.93215C9.52798 9.30322 9.79382 9.51407 9.79382 10.1191V14.3174C9.79382 14.9132 9.53715 15.1332 8.93215 15.1332H8.50132C7.89632 15.1332 7.63965 14.9224 7.63965 14.3174Z" stroke="#1A171F" stroke-width="1.5" stroke-linecap="round" stroke-linejoin="round"/>
</svg>
